<mxfile host="app.diagrams.net" modified="2023-05-14T12:57:04.433Z" agent="Mozilla/5.0 (Macintosh; Intel Mac OS X 10_15_7) AppleWebKit/537.36 (KHTML, like Gecko) Chrome/113.0.0.0 Safari/537.36" version="21.3.0" etag="dbQ8VDklV_3tiDSheABY" type="github">
  <diagram name="페이지-1" id="CFkkK9XZv2ZRV_2PRutQ">
    <mxGraphModel>
      <root>
        <mxCell id="0" />
        <mxCell id="1" parent="0" />
      </root>
    </mxGraphModel>
  </diagram>
</mxfile>
